<?xml version="1.0" standalone="no"?>
<!DOCTYPE svg PUBLIC "-//W3C//DTD SVG 20010904//EN"
 "http://www.w3.org/TR/2001/REC-SVG-20010904/DTD/svg10.dtd">
<svg version="1.0" xmlns="http://www.w3.org/2000/svg"
 width="1200.000000pt" height="1200.000000pt" viewBox="0 0 1200.000000 1200.000000"
 preserveAspectRatio="xMidYMid meet">
<metadata>
Created by potrace 1.14, written by Peter Selinger 2001-2017
</metadata>
<g transform="translate(0.000000,1200.000000) scale(0.100000,-0.100000)"
fill="#000000" stroke="none">
<path d="M2517 11154 c-16 -5 -16 -7 1 -29 10 -12 24 -42 32 -66 12 -41 93
-215 180 -389 20 -41 43 -93 50 -115 7 -22 57 -131 111 -242 54 -111 101 -215
105 -230 4 -15 19 -53 35 -83 60 -116 189 -393 189 -405 0 -7 15 -43 34 -81
82 -164 135 -287 129 -297 -4 -7 -530 -8 -1672 -3 -916 4 -1674 4 -1683 1 -17
-7 -16 -9 2 -32 11 -14 20 -29 20 -34 0 -4 14 -37 30 -72 17 -36 30 -68 30
-72 0 -3 28 -63 61 -133 107 -221 156 -326 164 -352 4 -14 54 -122 110 -240
56 -118 115 -246 130 -285 15 -38 54 -122 85 -185 31 -63 70 -144 85 -180 59
-137 116 -261 189 -410 42 -85 76 -160 76 -167 0 -7 4 -21 10 -31 17 -29 190
-394 190 -399 0 -8 81 -184 160 -348 37 -77 71 -151 75 -165 4 -14 55 -124
112 -245 58 -121 111 -236 118 -255 7 -19 43 -98 80 -175 115 -241 135 -284
135 -294 0 -8 33 -78 196 -417 19 -39 34 -76 34 -82 0 -7 4 -20 10 -30 31 -55
200 -417 200 -429 0 -7 50 -114 121 -256 21 -43 39 -89 39 -103 0 -13 4 -32 9
-42 21 -40 52 -111 72 -162 11 -30 35 -84 53 -120 73 -144 154 -316 161 -340
4 -14 33 -79 65 -145 120 -248 150 -313 150 -324 0 -6 4 -19 10 -29 30 -54
211 -439 217 -461 3 -14 19 -51 34 -81 67 -135 163 -340 184 -395 22 -58 114
-249 195 -405 121 -235 238 -477 269 -555 10 -27 57 -129 104 -225 46 -96 88
-186 92 -200 14 -46 143 -310 152 -310 9 0 67 117 79 159 3 13 53 119 109 235
57 117 115 241 128 276 13 36 40 97 60 135 46 92 137 284 137 291 0 3 11 30
25 60 14 31 23 59 20 64 -3 5 37 98 90 206 52 108 95 202 95 209 0 7 29 71 64
141 119 240 156 319 156 330 0 6 52 118 115 249 63 131 115 245 115 252 0 7
27 66 59 131 80 158 157 322 166 352 4 14 51 115 105 225 54 111 102 214 106
230 7 33 44 105 53 105 7 0 162 -320 174 -358 13 -39 31 -78 122 -265 46 -92
86 -180 90 -195 6 -25 47 -114 155 -332 26 -52 56 -120 68 -151 32 -87 191
-409 201 -409 5 0 17 21 26 48 10 26 38 90 63 142 128 269 150 317 157 340 7
22 76 170 186 395 22 43 39 84 39 89 0 10 15 41 147 311 34 71 63 134 63 141
0 6 15 42 34 80 39 82 133 276 169 354 14 30 35 78 46 107 11 28 54 119 96
202 41 83 75 156 75 162 0 6 8 23 19 37 10 15 21 39 25 55 3 15 42 100 85 190
111 230 121 252 121 261 0 8 17 45 148 317 44 91 83 176 87 190 4 13 47 105
95 204 48 99 97 200 109 224 11 25 21 50 21 55 0 6 25 63 56 126 100 205 151
314 159 340 4 14 41 95 82 180 112 231 140 292 148 320 4 14 20 50 35 80 63
124 168 347 175 370 7 23 29 71 172 370 28 58 54 116 58 130 8 24 168 361 206
431 10 20 19 42 19 48 0 11 22 60 147 321 33 69 64 136 68 150 4 14 56 124
115 245 59 121 110 231 114 245 8 26 13 38 134 290 38 80 73 156 77 168 4 13
43 99 87 190 141 295 148 310 148 321 0 5 27 66 61 133 33 68 75 152 92 188
17 36 38 81 48 100 9 19 20 46 24 60 4 14 34 81 67 150 126 262 138 288 138
299 0 12 -658 16 -3680 19 -1229 1 -2806 4 -3505 7 -698 2 -1278 2 -1288 -1z
m7203 -969 c0 -13 -9 -39 -20 -57 -11 -18 -20 -40 -20 -49 0 -10 -20 -57 -44
-105 -98 -199 -184 -383 -191 -405 -4 -13 -31 -73 -60 -134 -123 -256 -163
-341 -170 -364 -4 -14 -52 -116 -106 -229 -55 -112 -99 -208 -99 -214 0 -10
-58 -133 -175 -370 -29 -58 -55 -118 -59 -133 -4 -15 -43 -101 -86 -190 -44
-90 -80 -167 -80 -170 0 -4 -8 -19 -19 -33 -10 -15 -21 -40 -25 -57 -4 -16
-28 -75 -55 -130 -131 -271 -170 -352 -176 -375 -8 -26 -74 -167 -167 -356
-30 -60 -58 -122 -62 -138 -4 -15 -51 -117 -105 -226 -54 -110 -102 -212 -106
-227 -3 -15 -41 -98 -82 -183 -92 -188 -143 -298 -143 -306 0 -8 -41 -96 -146
-310 -46 -95 -84 -177 -84 -184 0 -11 -24 -63 -160 -345 -27 -55 -52 -111 -56
-125 -4 -14 -50 -115 -104 -225 -53 -110 -105 -222 -116 -250 -10 -27 -40 -95
-67 -150 -125 -256 -146 -303 -163 -352 -10 -29 -20 -53 -23 -53 -4 0 -17 24
-30 53 -14 28 -55 113 -91 187 -37 75 -70 148 -74 163 -3 15 -52 121 -108 235
l-101 207 21 40 c45 86 180 373 187 396 7 22 71 159 186 394 27 55 49 106 49
113 0 8 18 48 39 90 57 112 151 311 166 352 14 39 89 199 171 364 30 60 54
113 54 118 0 12 26 69 125 273 46 94 86 181 90 195 4 14 38 88 75 165 104 214
147 308 155 335 4 14 56 125 116 247 60 123 112 235 115 250 4 15 54 122 111
239 56 117 103 217 103 223 0 6 50 112 110 236 61 125 110 231 110 237 0 13
31 81 101 220 27 53 49 103 49 110 0 13 -157 16 -1082 21 -595 4 -1550 7
-2122 7 -573 0 -1046 4 -1053 8 -12 7 -104 198 -118 242 -4 14 -42 97 -85 185
-119 246 -120 248 -120 257 0 11 -29 76 -86 192 -24 49 -44 95 -44 103 0 11
506 13 2975 13 l2975 0 0 -25z m-5870 -1950 c9 -16 22 -46 29 -65 19 -51 95
-216 168 -363 35 -71 63 -135 63 -144 0 -8 13 -41 29 -72 56 -107 191 -394
191 -406 0 -6 26 -65 59 -131 32 -65 69 -141 81 -169 13 -27 38 -81 56 -119
19 -38 34 -73 34 -77 0 -9 64 -146 155 -334 29 -60 57 -121 60 -135 4 -14 41
-95 82 -180 95 -194 138 -288 148 -320 6 -21 87 -197 115 -251 62 -120 100
-202 100 -217 0 -5 22 -53 49 -108 85 -172 163 -338 176 -374 7 -19 27 -65 44
-102 17 -36 31 -75 31 -85 0 -10 -16 -49 -35 -87 -19 -39 -35 -74 -35 -79 0
-12 -17 -49 -115 -252 -99 -203 -125 -261 -125 -273 0 -5 -27 -63 -59 -128
-73 -147 -141 -292 -141 -299 0 -11 -97 -218 -191 -408 -22 -43 -39 -83 -39
-88 0 -9 -19 -49 -158 -339 -27 -58 -53 -116 -57 -130 -8 -25 -140 -305 -196
-412 -16 -31 -29 -63 -29 -70 0 -8 -20 -54 -45 -103 -24 -50 -45 -96 -45 -102
0 -30 -18 -8 -50 60 -18 39 -45 97 -60 127 -15 30 -31 66 -35 80 -9 30 -66
153 -146 315 -33 66 -59 124 -59 128 0 13 -137 305 -210 450 -11 22 -20 44
-20 49 0 6 -12 36 -26 67 -47 100 -145 305 -175 365 -16 32 -29 63 -29 68 0
12 -11 36 -120 263 -48 99 -90 191 -94 205 -5 14 -34 79 -66 145 -116 240
-158 331 -165 355 -6 22 -82 183 -181 384 -19 38 -34 75 -34 83 0 7 -4 21 -10
31 -11 20 -170 351 -193 402 -59 132 -87 204 -87 221 0 10 -4 27 -10 37 -31
55 -160 336 -160 348 0 14 -5 26 -32 77 -45 84 -164 337 -173 367 -4 14 -48
108 -97 210 -96 197 -127 264 -148 320 -7 19 -52 116 -100 215 -48 99 -93 198
-100 220 -7 22 -23 60 -35 85 -65 128 -183 378 -190 400 -7 23 -132 292 -155
332 -29 51 -110 48 1267 46 l1276 -3 17 -30z m3370 12 c0 -13 -18 -59 -39
-103 -102 -207 -181 -372 -181 -378 0 -10 -32 -81 -110 -241 -78 -162 -110
-231 -110 -241 0 -6 -20 -48 -153 -324 -35 -74 -68 -146 -72 -160 -6 -22 -76
-169 -182 -385 -19 -38 -45 -97 -58 -130 -12 -33 -61 -139 -108 -235 -46 -96
-88 -186 -92 -200 -6 -20 -65 -146 -157 -337 -6 -13 -15 -23 -19 -23 -8 0 -42
71 -54 110 -4 14 -34 81 -67 150 -97 199 -148 310 -148 321 0 5 -4 17 -10 27
-9 17 -133 275 -189 393 -17 37 -31 71 -31 76 0 5 -17 45 -38 89 -167 342
-192 397 -192 411 0 8 -49 110 -128 268 -24 50 -55 119 -69 155 -13 35 -31 76
-38 90 -7 14 -50 102 -94 195 -45 94 -86 178 -91 187 -6 10 -10 22 -10 28 0 6
-15 43 -34 83 -72 154 -86 186 -86 191 0 3 576 6 1280 6 l1280 0 0 -23z"/>
<path d="M9850 2680 c0 -11 7 -20 15 -20 8 0 15 9 15 20 0 11 -7 20 -15 20 -8
0 -15 -9 -15 -20z"/>
</g>
</svg>
